G04 Layer: TopPasteMaskLayer*
G04 EasyEDA v6.4.25, 2023-10-22T17:26:54+05:00*
G04 a018637cff68459b90fd6ed0888e4960,10*
G04 Gerber Generator version 0.2*
G04 Scale: 100 percent, Rotated: No, Reflected: No *
G04 Dimensions in millimeters *
G04 leading zeros omitted , absolute positions ,4 integer and 5 decimal *
%FSLAX45Y45*%
%MOMM*%

%ADD11R,1.4500X1.1600*%
%ADD12R,1.1600X1.4500*%
%ADD13R,1.4000X2.5000*%
%ADD14R,1.7000X1.4000*%
%ADD15R,1.0500X2.4650*%
%ADD17R,3.5000X1.2000*%

%LPD*%
D11*
G01*
X3530600Y13423900D03*
G01*
X3530600Y13220700D03*
D12*
G01*
X2451100Y9537700D03*
G01*
X2247900Y9537700D03*
G36*
X2913799Y13521799D02*
G01*
X3029800Y13521799D01*
X3029800Y13376800D01*
X2913799Y13376800D01*
G37*
G36*
X3116999Y13521799D02*
G01*
X3233000Y13521799D01*
X3233000Y13376800D01*
X3116999Y13376800D01*
G37*
G36*
X2253399Y11400899D02*
G01*
X2369400Y11400899D01*
X2369400Y11255900D01*
X2253399Y11255900D01*
G37*
G36*
X2456599Y11400899D02*
G01*
X2572600Y11400899D01*
X2572600Y11255900D01*
X2456599Y11255900D01*
G37*
D13*
G01*
X1800339Y13162965D03*
G01*
X2000338Y13162940D03*
G01*
X2200338Y13162965D03*
G01*
X2400338Y13162889D03*
G01*
X2600337Y13162965D03*
G01*
X2800337Y13163042D03*
G01*
X3000336Y13162914D03*
G01*
X3200336Y13162762D03*
D14*
G01*
X3330435Y12907568D03*
G01*
X3330359Y12707569D03*
G01*
X3330359Y12507645D03*
G01*
X3330359Y12307570D03*
G01*
X3330308Y12107697D03*
G01*
X3330460Y11907901D03*
D13*
G01*
X3200336Y11652834D03*
G01*
X3000336Y11652758D03*
G01*
X2800337Y11652758D03*
G01*
X2600337Y11652758D03*
G01*
X2400338Y11652758D03*
G01*
X2200338Y11652758D03*
G01*
X2000338Y11652758D03*
G01*
X1800339Y11652758D03*
D15*
G01*
X3008502Y10598150D03*
G01*
X3238500Y10598150D03*
G01*
X3468497Y10598150D03*
G36*
X3415499Y11046399D02*
G01*
X3061500Y11046399D01*
X3061500Y11292900D01*
X3415499Y11292900D01*
G37*
D17*
G01*
X2895312Y9893312D03*
G01*
X3429297Y9893312D03*
G36*
X2466896Y10499399D02*
G01*
X2816898Y10499399D01*
X2816898Y10379400D01*
X2466896Y10379400D01*
G37*
G36*
X1932901Y10499399D02*
G01*
X2282903Y10499399D01*
X2282903Y10379400D01*
X1932901Y10379400D01*
G37*
M02*
