G04 Layer: TopSilkLayer*
G04 EasyEDA v6.4.25, 2023-10-22T17:26:54+05:00*
G04 a018637cff68459b90fd6ed0888e4960,10*
G04 Gerber Generator version 0.2*
G04 Scale: 100 percent, Rotated: No, Reflected: No *
G04 Dimensions in millimeters *
G04 leading zeros omitted , absolute positions ,4 integer and 5 decimal *
%FSLAX45Y45*%
%MOMM*%

%ADD10C,0.2540*%
%ADD20C,0.1999*%
%ADD21C,0.1524*%

%LPD*%
D21*
X2479982Y8777500D02*
G01*
X2588948Y8777500D01*
X2479982Y8777500D02*
G01*
X2588948Y8850144D01*
X2479982Y8850144D02*
G01*
X2588948Y8850144D01*
X2479982Y8915676D02*
G01*
X2485062Y8905262D01*
X2495476Y8894848D01*
X2505890Y8889768D01*
X2521638Y8884434D01*
X2547546Y8884434D01*
X2563040Y8889768D01*
X2573454Y8894848D01*
X2583868Y8905262D01*
X2588948Y8915676D01*
X2588948Y8936504D01*
X2583868Y8946918D01*
X2573454Y8957332D01*
X2563040Y8962412D01*
X2547546Y8967746D01*
X2521638Y8967746D01*
X2505890Y8962412D01*
X2495476Y8957332D01*
X2485062Y8946918D01*
X2479982Y8936504D01*
X2479982Y8915676D01*
X1092200Y9665715D02*
G01*
X1092200Y9556750D01*
X1092200Y9665715D02*
G01*
X1138936Y9665715D01*
X1154429Y9660636D01*
X1159763Y9655302D01*
X1164844Y9644887D01*
X1164844Y9629394D01*
X1159763Y9618979D01*
X1154429Y9613900D01*
X1138936Y9608565D01*
X1092200Y9608565D01*
X1199134Y9665715D02*
G01*
X1199134Y9556750D01*
X1199134Y9665715D02*
G01*
X1240789Y9556750D01*
X1282445Y9665715D02*
G01*
X1240789Y9556750D01*
X1282445Y9665715D02*
G01*
X1282445Y9556750D01*
X1316736Y9520174D02*
G01*
X1410207Y9520174D01*
X1444497Y9665715D02*
G01*
X1444497Y9556750D01*
X1444497Y9665715D02*
G01*
X1491234Y9665715D01*
X1506728Y9660636D01*
X1512062Y9655302D01*
X1517142Y9644887D01*
X1517142Y9629394D01*
X1512062Y9618979D01*
X1506728Y9613900D01*
X1491234Y9608565D01*
X1444497Y9608565D01*
X1551431Y9665715D02*
G01*
X1551431Y9587737D01*
X1556765Y9572244D01*
X1567179Y9561829D01*
X1582673Y9556750D01*
X1593087Y9556750D01*
X1608581Y9561829D01*
X1618995Y9572244D01*
X1624329Y9587737D01*
X1624329Y9665715D01*
X1658620Y9665715D02*
G01*
X1658620Y9556750D01*
X1658620Y9556750D02*
G01*
X1720850Y9556750D01*
X1827784Y9650221D02*
G01*
X1817370Y9660636D01*
X1801876Y9665715D01*
X1781047Y9665715D01*
X1765554Y9660636D01*
X1755139Y9650221D01*
X1755139Y9639808D01*
X1760220Y9629394D01*
X1765554Y9624060D01*
X1775968Y9618979D01*
X1807210Y9608565D01*
X1817370Y9603486D01*
X1822704Y9598152D01*
X1827784Y9587737D01*
X1827784Y9572244D01*
X1817370Y9561829D01*
X1801876Y9556750D01*
X1781047Y9556750D01*
X1765554Y9561829D01*
X1755139Y9572244D01*
X1862073Y9665715D02*
G01*
X1862073Y9556750D01*
X1862073Y9665715D02*
G01*
X1929637Y9665715D01*
X1862073Y9613900D02*
G01*
X1903729Y9613900D01*
X1862073Y9556750D02*
G01*
X1929637Y9556750D01*
X3633215Y13042900D02*
G01*
X3524250Y13042900D01*
X3633215Y13042900D02*
G01*
X3633215Y12996163D01*
X3628136Y12980670D01*
X3622802Y12975336D01*
X3612388Y12970255D01*
X3601974Y12970255D01*
X3591559Y12975336D01*
X3586479Y12980670D01*
X3581400Y12996163D01*
X3581400Y13042900D01*
X3581400Y13006578D02*
G01*
X3524250Y12970255D01*
X3612388Y12935965D02*
G01*
X3617722Y12925552D01*
X3633215Y12909804D01*
X3524250Y12909804D01*
X2374925Y9269958D02*
G01*
X2374925Y9378924D01*
X2374925Y9269958D02*
G01*
X2328189Y9269958D01*
X2312695Y9275038D01*
X2307361Y9280372D01*
X2302281Y9290786D01*
X2302281Y9301200D01*
X2307361Y9311614D01*
X2312695Y9316694D01*
X2328189Y9321774D01*
X2374925Y9321774D01*
X2338603Y9321774D02*
G01*
X2302281Y9378924D01*
X2262657Y9295866D02*
G01*
X2262657Y9290786D01*
X2257577Y9280372D01*
X2252243Y9275038D01*
X2241829Y9269958D01*
X2221255Y9269958D01*
X2210841Y9275038D01*
X2205507Y9280372D01*
X2200427Y9290786D01*
X2200427Y9301200D01*
X2205507Y9311614D01*
X2215921Y9327108D01*
X2267991Y9378924D01*
X2195093Y9378924D01*
X2590800Y13526516D02*
G01*
X2590800Y13417550D01*
X2590800Y13526516D02*
G01*
X2637536Y13526516D01*
X2653029Y13521436D01*
X2658363Y13516102D01*
X2663443Y13505687D01*
X2663443Y13495274D01*
X2658363Y13484860D01*
X2653029Y13479779D01*
X2637536Y13474700D01*
X2590800Y13474700D01*
X2627122Y13474700D02*
G01*
X2663443Y13417550D01*
X2708147Y13526516D02*
G01*
X2765297Y13526516D01*
X2734309Y13484860D01*
X2749804Y13484860D01*
X2760218Y13479779D01*
X2765297Y13474700D01*
X2770631Y13458952D01*
X2770631Y13448537D01*
X2765297Y13433044D01*
X2754884Y13422629D01*
X2739390Y13417550D01*
X2723895Y13417550D01*
X2708147Y13422629D01*
X2703068Y13427710D01*
X2697734Y13438124D01*
X2387574Y11596141D02*
G01*
X2387574Y11487175D01*
X2387574Y11596141D02*
G01*
X2434310Y11596141D01*
X2449804Y11591061D01*
X2455138Y11585727D01*
X2460218Y11575313D01*
X2460218Y11564899D01*
X2455138Y11554485D01*
X2449804Y11549405D01*
X2434310Y11544325D01*
X2387574Y11544325D01*
X2423896Y11544325D02*
G01*
X2460218Y11487175D01*
X2546578Y11596141D02*
G01*
X2494508Y11523497D01*
X2572486Y11523497D01*
X2546578Y11596141D02*
G01*
X2546578Y11487175D01*
X2180551Y13438378D02*
G01*
X2180551Y13360400D01*
X2185631Y13344905D01*
X2196045Y13334492D01*
X2211793Y13329412D01*
X2222207Y13329412D01*
X2237701Y13334492D01*
X2248115Y13344905D01*
X2253195Y13360400D01*
X2253195Y13438378D01*
X2287485Y13417550D02*
G01*
X2297899Y13422884D01*
X2313647Y13438378D01*
X2313647Y13329412D01*
X3734815Y10883900D02*
G01*
X3656838Y10883900D01*
X3641343Y10878820D01*
X3630929Y10868405D01*
X3625850Y10852658D01*
X3625850Y10842244D01*
X3630929Y10826750D01*
X3641343Y10816336D01*
X3656838Y10811255D01*
X3734815Y10811255D01*
X3708908Y10771631D02*
G01*
X3713988Y10771631D01*
X3724402Y10766552D01*
X3729736Y10761218D01*
X3734815Y10750804D01*
X3734815Y10730229D01*
X3729736Y10719815D01*
X3724402Y10714481D01*
X3713988Y10709402D01*
X3703574Y10709402D01*
X3693159Y10714481D01*
X3677665Y10724895D01*
X3625850Y10776965D01*
X3625850Y10704068D01*
X3163587Y9398546D02*
G01*
X3163587Y9476524D01*
X3158507Y9492018D01*
X3148093Y9502432D01*
X3132345Y9507512D01*
X3121931Y9507512D01*
X3106437Y9502432D01*
X3096023Y9492018D01*
X3090943Y9476524D01*
X3090943Y9398546D01*
X3046239Y9398546D02*
G01*
X2989089Y9398546D01*
X3020077Y9440202D01*
X3004583Y9440202D01*
X2994169Y9445282D01*
X2989089Y9450362D01*
X2983755Y9466110D01*
X2983755Y9476524D01*
X2989089Y9492018D01*
X2999503Y9502432D01*
X3014997Y9507512D01*
X3030491Y9507512D01*
X3046239Y9502432D01*
X3051319Y9497352D01*
X3056653Y9486938D01*
X2373612Y10934153D02*
G01*
X2373612Y10856175D01*
X2378692Y10840681D01*
X2389106Y10830267D01*
X2404854Y10825187D01*
X2415268Y10825187D01*
X2430762Y10830267D01*
X2441176Y10840681D01*
X2446256Y10856175D01*
X2446256Y10934153D01*
X2532616Y10934153D02*
G01*
X2480546Y10861509D01*
X2558524Y10861509D01*
X2532616Y10934153D02*
G01*
X2532616Y10825187D01*
G36*
X3423005Y10111079D02*
G01*
X3423005Y9979101D01*
X3442817Y9979101D01*
X3442817Y10111079D01*
G37*
G36*
X3393287Y10054996D02*
G01*
X3393287Y10035184D01*
X3472484Y10035184D01*
X3472484Y10054996D01*
G37*
G36*
X2852115Y10054996D02*
G01*
X2852115Y10035184D01*
X2931312Y10035184D01*
X2931312Y10054996D01*
G37*
G36*
X2094382Y10353598D02*
G01*
X2094382Y10221620D01*
X2114194Y10221620D01*
X2114194Y10353598D01*
G37*
G36*
X2064715Y10297515D02*
G01*
X2064715Y10277703D01*
X2143912Y10277703D01*
X2143912Y10297515D01*
G37*
G36*
X2605887Y10297515D02*
G01*
X2605887Y10277703D01*
X2685084Y10277703D01*
X2685084Y10297515D01*
G37*
D10*
X2984497Y8839202D02*
G01*
X2984497Y8940802D01*
X2730502Y8839202D02*
G01*
X2730502Y8940802D01*
X2679702Y8890002D02*
G01*
X2794002Y8890002D01*
X3013664Y8491247D02*
G01*
X3013664Y8612400D01*
X2723939Y8491247D02*
G01*
X2723939Y8612400D01*
X2638808Y8609911D02*
G01*
X2638808Y9249915D01*
X3098802Y9249915D01*
X3098802Y8609911D01*
X2638808Y8609911D01*
X2019300Y9372600D02*
G01*
X2019300Y8612606D01*
X1019302Y8612606D01*
X1019302Y9372600D01*
X2019300Y9372600D01*
D20*
X3427120Y13266826D02*
G01*
X3427120Y13134822D01*
X3634130Y13134822D01*
X3634130Y13266826D01*
X3427120Y13380034D02*
G01*
X3427120Y13512037D01*
X3634130Y13512037D01*
X3634130Y13380034D01*
X2294026Y9641179D02*
G01*
X2162022Y9641179D01*
X2162022Y9434169D01*
X2294026Y9434169D01*
X2407234Y9641179D02*
G01*
X2539238Y9641179D01*
X2539238Y9434169D01*
X2407234Y9434169D01*
X3128873Y13345820D02*
G01*
X3260877Y13345820D01*
X3260877Y13552830D01*
X3128873Y13552830D01*
X3015665Y13345820D02*
G01*
X2883661Y13345820D01*
X2883661Y13552830D01*
X3015665Y13552830D01*
X2468473Y11224920D02*
G01*
X2600477Y11224920D01*
X2600477Y11431930D01*
X2468473Y11431930D01*
X2355265Y11224920D02*
G01*
X2223261Y11224920D01*
X2223261Y11431930D01*
X2355265Y11431930D01*
D10*
X1907225Y11607800D02*
G01*
X1893453Y11607800D01*
X2107224Y11607800D02*
G01*
X2093452Y11607800D01*
X2307224Y11607800D02*
G01*
X2293452Y11607800D01*
X2507223Y11607800D02*
G01*
X2493451Y11607800D01*
X2707223Y11607800D02*
G01*
X2693451Y11607800D01*
X2907223Y11607800D02*
G01*
X2893451Y11607800D01*
X3107222Y11607800D02*
G01*
X3093450Y11607800D01*
X3350094Y11814787D02*
G01*
X3350094Y11607800D01*
X3293450Y11607800D01*
X3350094Y12014583D02*
G01*
X3350094Y12001014D01*
X3350094Y12214456D02*
G01*
X3350094Y12200811D01*
X3350094Y12414531D02*
G01*
X3350094Y12400683D01*
X3350094Y12614455D02*
G01*
X3350094Y12600759D01*
X3350094Y12814454D02*
G01*
X3350094Y12800683D01*
X3293450Y13207745D02*
G01*
X3350094Y13207745D01*
X3350094Y13000682D01*
X3093450Y13207745D02*
G01*
X3107222Y13207745D01*
X2893451Y13207745D02*
G01*
X2907223Y13207745D01*
X2693451Y13207745D02*
G01*
X2707223Y13207745D01*
X2493451Y13207745D02*
G01*
X2507223Y13207745D01*
X2293452Y13207745D02*
G01*
X2307224Y13207745D01*
X2093452Y13207745D02*
G01*
X2107224Y13207745D01*
X1893453Y13207745D02*
G01*
X1907225Y13207745D01*
X1707225Y11607800D02*
G01*
X950318Y11607800D01*
X950318Y13207745D02*
G01*
X1707225Y13207745D01*
X1550316Y12907746D02*
G01*
X1550316Y11907748D01*
X1050317Y11907748D01*
X1050317Y12007748D01*
X1350317Y12007748D01*
X1350317Y12107748D01*
X1050317Y12107748D01*
X1050317Y12207747D01*
X1350317Y12207747D01*
X1350317Y12307747D01*
X1050317Y12307747D01*
X1050317Y12407747D01*
X1350317Y12407747D01*
X1350317Y12507747D01*
X1050317Y12507747D01*
X1050317Y13107746D01*
X1850316Y11807748D02*
G01*
X3150313Y11807748D01*
X3150313Y13007746D01*
X1850316Y13007746D01*
X1850316Y11807748D01*
X1650316Y11707749D02*
G01*
X1650316Y13107746D01*
X950318Y11607749D02*
G01*
X950318Y13207745D01*
D21*
X2898378Y11023539D02*
G01*
X3578621Y11023539D01*
X3578621Y10744260D01*
X2898378Y10744260D01*
X2898378Y11023539D01*
X2826738Y9967226D02*
G01*
X2824734Y10230865D01*
X3360420Y10230865D01*
X3499865Y10091420D01*
X3498529Y9961879D01*
X2825351Y9822530D02*
G01*
X2824683Y9555683D01*
X3360303Y9555683D01*
X3499916Y9695296D01*
X3499916Y9824720D01*
X2710461Y10365473D02*
G01*
X2712465Y10101834D01*
X2176779Y10101834D01*
X2037334Y10241279D01*
X2038670Y10370820D01*
X2711848Y10510169D02*
G01*
X2712516Y10777016D01*
X2176896Y10777016D01*
X2037283Y10637403D01*
X2037283Y10507979D01*
D10*
G75*
G01*
X2723937Y8491248D02*
G03*
X3013664Y8491248I144863J6305D01*
G75*
G01
X1679384Y11544300D02*
G03X1679384Y11544300I-28397J0D01*
M02*
