G04 Layer: TopLayer*
G04 EasyEDA v6.4.25, 2023-10-22T17:26:54+05:00*
G04 a018637cff68459b90fd6ed0888e4960,10*
G04 Gerber Generator version 0.2*
G04 Scale: 100 percent, Rotated: No, Reflected: No *
G04 Dimensions in millimeters *
G04 leading zeros omitted , absolute positions ,4 integer and 5 decimal *
%FSLAX45Y45*%
%MOMM*%

%ADD10C,0.2540*%
%ADD11R,1.4500X1.1600*%
%ADD12R,1.1600X1.4500*%
%ADD13R,1.4000X2.5000*%
%ADD14R,1.7000X1.4000*%
%ADD15R,1.0500X2.4650*%
%ADD17R,3.5000X1.2000*%
%ADD18C,1.5240*%
%ADD19C,3.0000*%

%LPD*%
D10*
X3530600Y13220700D02*
G01*
X3543300Y11049000D01*
X3060700Y10769600D01*
X3008505Y10749511D01*
X3200400Y11510010D02*
G01*
X3200400Y11480800D01*
X3238500Y11417300D01*
X3238502Y11321011D02*
G01*
X3238500Y11417300D01*
X3238502Y11321011D02*
G01*
X2514600Y11328400D01*
X2514600Y10998200D01*
X2311021Y10999040D02*
G01*
X2514600Y10998200D01*
X2514600Y10998200D01*
X2311021Y10999040D02*
G01*
X2326058Y10999040D01*
X2311400Y10998200D01*
X3530602Y13510033D02*
G01*
X3490699Y13549937D01*
X3096313Y13549937D01*
X3073400Y13538200D01*
X3073400Y13347700D01*
X3022600Y13296900D01*
X3000336Y13162914D01*
X3000326Y13162917D02*
G01*
X3000336Y13162914D01*
X1790700Y13462000D02*
G01*
X812800Y13449300D01*
X812800Y8674100D01*
X2235200Y8674100D01*
X2235200Y9144000D01*
X2235200Y9537700D01*
X2247900Y9537700D01*
X2247900Y9550400D01*
X2235200Y9550400D01*
X1800329Y13162968D02*
G01*
X1800860Y13462000D01*
X2451100Y9537700D02*
G01*
X2451100Y9334500D01*
X2743200Y9042400D01*
X3632431Y9893302D02*
G01*
X3632431Y10282862D01*
X3468499Y10446793D01*
X3429307Y9893302D02*
G01*
X3632431Y9893302D01*
X3468499Y10598152D02*
G01*
X3468499Y10446793D01*
X2200328Y11652760D02*
G01*
X2200328Y11449408D01*
X2260602Y11389133D01*
X2260600Y11353800D02*
G01*
X2260600Y11389133D01*
X3530602Y13423902D02*
G01*
X3530602Y13510033D01*
X2400327Y13316028D02*
G01*
X2533601Y13449302D01*
X2971802Y13449302D01*
X2400327Y13229287D02*
G01*
X2400327Y13316028D01*
X2400327Y13229287D02*
G01*
X2400327Y13162892D01*
X1270000Y8915400D02*
G01*
X1270000Y11637368D01*
X2400325Y12767690D01*
X2400325Y13162892D01*
X3200326Y11652836D02*
G01*
X3200326Y11509885D01*
X3238502Y11169652D02*
G01*
X3238502Y11321011D01*
X2311021Y10439377D02*
G01*
X2311021Y10999040D01*
X2107897Y10439377D02*
G01*
X2207668Y10439377D01*
X2207668Y10439377D02*
G01*
X2311021Y10439377D01*
X2207666Y10439374D02*
G01*
X1765300Y9997008D01*
X1765300Y8915400D01*
X2641881Y10439377D02*
G01*
X2743456Y10439377D01*
X2743456Y10439377D02*
G01*
X3001088Y10439377D01*
X3008505Y10446793D01*
X3008505Y10598152D02*
G01*
X3008505Y10446793D01*
X2743456Y10439377D02*
G01*
X2692199Y10388119D01*
X2692199Y9893302D01*
X2895323Y9893302D02*
G01*
X2793773Y9893302D01*
X2793773Y9893302D02*
G01*
X2692199Y9893302D01*
X2793773Y9893302D02*
G01*
X2793773Y9245831D01*
X2997202Y9042402D01*
X3175002Y13449302D02*
G01*
X3175002Y13348693D01*
X3200326Y13162765D02*
G01*
X3200326Y13220702D01*
X3200326Y13220702D02*
G01*
X3200326Y13323369D01*
X3175002Y13348693D01*
X3008505Y10598152D02*
G01*
X3008505Y10749511D01*
X3200326Y13220702D02*
G01*
X3459609Y13220702D01*
X3459609Y13220702D02*
G01*
X3530602Y13220702D01*
D11*
G01*
X3530600Y13423900D03*
G01*
X3530600Y13220700D03*
D12*
G01*
X2451100Y9537700D03*
G01*
X2247900Y9537700D03*
G36*
X2913799Y13521799D02*
G01*
X3029800Y13521799D01*
X3029800Y13376800D01*
X2913799Y13376800D01*
G37*
G36*
X3116999Y13521799D02*
G01*
X3233000Y13521799D01*
X3233000Y13376800D01*
X3116999Y13376800D01*
G37*
G36*
X2253399Y11400899D02*
G01*
X2369400Y11400899D01*
X2369400Y11255900D01*
X2253399Y11255900D01*
G37*
G36*
X2456599Y11400899D02*
G01*
X2572600Y11400899D01*
X2572600Y11255900D01*
X2456599Y11255900D01*
G37*
D13*
G01*
X1800339Y13162965D03*
G01*
X2000338Y13162940D03*
G01*
X2200338Y13162965D03*
G01*
X2400338Y13162889D03*
G01*
X2600337Y13162965D03*
G01*
X2800337Y13163042D03*
G01*
X3000336Y13162914D03*
G01*
X3200336Y13162762D03*
D14*
G01*
X3330435Y12907568D03*
G01*
X3330359Y12707569D03*
G01*
X3330359Y12507645D03*
G01*
X3330359Y12307570D03*
G01*
X3330308Y12107697D03*
G01*
X3330460Y11907901D03*
D13*
G01*
X3200336Y11652834D03*
G01*
X3000336Y11652758D03*
G01*
X2800337Y11652758D03*
G01*
X2600337Y11652758D03*
G01*
X2400338Y11652758D03*
G01*
X2200338Y11652758D03*
G01*
X2000338Y11652758D03*
G01*
X1800339Y11652758D03*
D15*
G01*
X3008502Y10598150D03*
G01*
X3238500Y10598150D03*
G01*
X3468497Y10598150D03*
G36*
X3415499Y11046399D02*
G01*
X3061500Y11046399D01*
X3061500Y11292900D01*
X3415499Y11292900D01*
G37*
D17*
G01*
X2895312Y9893312D03*
G01*
X3429297Y9893312D03*
G36*
X2466896Y10499399D02*
G01*
X2816898Y10499399D01*
X2816898Y10379400D01*
X2466896Y10379400D01*
G37*
G36*
X1932901Y10499399D02*
G01*
X2282903Y10499399D01*
X2282903Y10379400D01*
X1932901Y10379400D01*
G37*
D18*
G01*
X2743202Y9042397D03*
G01*
X2997202Y9042397D03*
D19*
G01*
X1765300Y8915400D03*
G01*
X1270000Y8915400D03*
M02*
